<svg width="590" height="625" viewBox="0 0 590 625" fill="none" xmlns="http://www.w3.org/2000/svg">
<g clip-path="url(#clip0_503_2)">
<rect width="590" height="625" rx="25" fill="white"/>
<path d="M74.2883 -42.4675C92.4399 -37.7539 105.449 -28.1013 116.69 -12.5731C121.16 -6.37648 122.113 0.99577 119.79 12.1304C116 30.2097 109.896 45.283 101.092 57.4215C97.3669 62.5526 94.1751 63.4037 91.0196 58.2515C83.775 46.3934 74.8109 39.0219 64.1178 38.2992C58.967 37.9467 53.2097 39.2576 48.0097 42.7417C38.072 49.3929 33.9824 65.8784 39.5307 78.5998C44.9558 91.0327 51.8746 101.248 58.5437 111.628C73.4726 134.892 86.5017 161.095 95.6308 193.42C105.198 227.281 104.547 263.384 90.8869 302.883C80.8324 331.936 69.2919 358.749 52.2646 375.193C26.4646 400.11 0.745151 408.89 -24.1031 396.719C-44.1122 386.933 -62.2647 371.617 -75.7789 345.07C-88.8935 319.286 -88.441 316.059 -78.3651 281.153C-69.8401 251.622 -56.292 231.006 -40.185 215.7C-35.8209 211.557 -32.591 211.741 -29.2341 216.936C-18.7115 233.251 -7.68603 248.755 6.30198 256.409C11.2905 259.131 17.1245 260.416 22.6766 258.886C32.0506 256.29 38.5051 240.351 36.3561 225.074C34.9647 215.183 32.2084 205.46 28.4548 198.497C21.2837 185.234 12.9357 174.037 5.12397 161.905C-4.69292 146.658 -13.5452 129.627 -16.7232 105.366C-23.2628 55.5155 -11.6411 13.2875 17.7265 -18.3676C37.439 -39.6393 57.5438 -45.8108 74.2883 -42.4675Z" fill="#0A2A5E"/>
<path d="M-50.7759 565.906C-46.9755 555.735 -37.8976 543.814 -32.6643 536.588C-2.47273 494.905 26.508 450.543 53.7064 404.396C80.9047 358.25 104.307 313.177 129.99 267.794C131.404 265.305 134.328 262.264 135.786 261.923C151.169 258.339 161.229 265.257 166.555 280.744C167.318 282.942 165.38 289.898 163.367 294.205C155.819 310.338 147.763 326.329 139.807 342.326C134.308 353.367 128.411 364.279 123.11 375.384C116.77 388.663 116.031 393.029 120.782 397.759C125.111 402.05 130.665 404.303 136.05 406.724C139.765 408.395 143.931 404.535 148.477 396.149C167.656 360.808 187.125 325.693 206.234 290.309C217.699 269.096 218.346 268.057 227.717 273.304C232.107 275.779 236.058 279.254 239.508 283.398C244.705 289.574 244.29 293.005 237.271 308.324C224.709 335.704 211.864 363.025 199.356 390.437C175.551 442.6 151.892 494.797 128.216 546.982C110.959 585.023 93.7104 623.068 76.6078 661.147C74.23 666.445 72.2262 668.369 69.5265 668.724C48.4947 671.421 29.5056 669.774 18.46 651.237C14.7301 644.994 14.9714 643.258 22.01 630.716C39.278 599.957 56.7309 569.335 73.9456 538.544C87.5225 514.263 87.6286 512.742 76.4545 506.935C71.4434 504.333 65.8518 502.889 60.6698 500.615C56.5561 498.815 52.6784 502.792 48.568 511.303C35.5582 538.203 22.4328 565.034 9.50481 591.956C2.99897 605.486 2.31357 606.555 -4.45381 605.513C-20.3908 603.103 -34.0466 596.384 -45.0418 584.294C-47.6983 581.373 -53.4228 579.313 -52.3397 571.742C-52.0823 569.908 -51.5278 567.929 -50.7759 565.906Z" fill="#0A2A5E"/>
<path d="M107.037 217.79C106.099 216.367 105.444 214.642 105.217 212.55C104.757 208.343 105.719 203.619 106.656 199.074L108.744 188.981C118.678 140.93 128.612 92.8792 138.547 44.8282L153.451 -27.2575C155.925 -39.2061 158.933 -51.3715 160.91 -63.3186C162.132 -70.7071 162.989 -78.9843 169.854 -80.7465C184.324 -84.4644 197.427 -82.5152 209.199 -75.3033C211.094 -74.1506 212.229 -70.6268 212.975 -67.6239C223.095 -26.9778 233.075 13.7569 243.097 54.488C243.206 54.9328 243.209 55.5223 243.416 55.8407C245.138 58.518 246.903 61.1504 248.662 63.801C250.659 59.7431 253.421 55.838 254.513 51.6101C262.695 19.9927 270.632 -11.686 278.455 -43.3492C280.08 -49.9171 282.697 -52.2647 287.082 -53.0299C305.505 -56.202 320.878 -49.7058 334.728 -38.4906C339.159 -34.9073 342.978 -30.1097 347.274 -26.2258C350.56 -23.2698 350.365 -19.7793 347.867 -13.9564C328.806 30.3892 309.947 74.8825 291.019 119.305C273.79 159.754 256.423 200.103 239.409 240.664C236.452 247.724 233.657 249.744 229.244 248.312C220.484 245.454 211.702 242.692 202.862 240.094C199.282 239.033 197.716 235.811 196.876 230.982C190.949 196.93 184.926 162.922 178.787 129.011C177.912 124.168 178.429 116.126 172.892 118.005C167.679 119.767 167.955 127.469 167.197 132.488C163.14 159.281 159.35 186.081 155.857 212.837C155.018 219.273 153.221 221.881 148.82 223.101C140.134 225.486 131.477 226.37 123.306 225.083C118.437 224.321 110.61 223.199 107.032 217.767L107.037 217.79Z" fill="#0A2A5E"/>
<path d="M130.514 618.553C150.784 553.701 182.157 479.924 208.461 420.387C220.246 393.721 233.328 365.774 247.494 346.259C260.408 328.464 272.642 320.183 281.221 320.676C289.038 321.126 300.043 333.228 293.133 358.673C289.96 370.342 278.506 391.792 273.217 403.647C263.977 424.355 254.894 445.141 246.311 466.104C234.232 495.578 228.079 522.238 227.465 543.69C226.662 572.096 238.851 572.474 260.034 542.657C285.477 506.835 307.154 462.823 326.001 415.262C335.05 392.411 343.264 369.405 351.519 346.534C354.876 337.231 357.908 331.555 362.382 328.312C383.842 312.813 397.952 315.409 404.139 336.95C404.943 339.781 403.251 348.254 401.138 354.696C375.41 432.948 342.523 508.578 303.675 581.51C267.272 649.873 230.128 707.399 191.986 748.462C128.588 816.723 101.622 775.39 111.163 700.282C114.19 676.445 121.178 648.424 130.532 618.486L130.514 618.553Z" fill="#0A2A5E"/>
<path d="M470.483 -49.141C486.97 -40.1795 501.702 -26.3011 510.288 -2.80553C515.356 11.058 517.653 27.0056 514.723 46.5973C511.918 65.3947 504.984 83.0923 493.896 98.9631C467.434 136.867 440.388 151.933 413.131 146.709C410.895 146.288 408.921 144.978 406.566 145.039C404.237 145.093 401.587 146.339 399.072 147.069C399.043 150.455 398.313 154.535 399.093 157.094C404.991 176.252 411.074 195.216 417.317 214.013C423.734 233.344 430.396 252.428 436.998 271.565C438.067 274.636 438.315 277.099 434.743 280.622C415.466 299.662 396.342 311.604 377.237 311.925C373.056 311.994 371.333 309.517 370.715 304.021C366.525 266.905 362.12 229.947 357.622 193.065C357.111 188.823 358.078 181.112 352.863 183.901C347.831 186.6 348.653 193.423 347.519 198.42C342.051 222.467 337.122 246.466 331.222 270.533C328.043 283.484 327.316 283.682 318.489 286.278C297.231 292.521 276.565 296.561 260.502 284.678C249.651 276.658 249.493 276.091 257.387 258.047C265.726 239.003 274.092 219.973 282.45 200.939C299.202 162.765 316.159 124.679 332.696 86.4106C345.654 56.8675 358.613 27.3463 371.571 -2.19682C376.788 -14.0759 391.264 -55.1285 401.984 -57.2983C426.924 -62.3653 449.301 -59.5264 470.483 -49.141ZM437.586 -4.37677C434.304 -5.40101 431.089 -6.62003 427.724 -7.41588C423.779 -8.35445 420.478 -5.33678 418.202 1.27442C412.147 18.8763 406.21 36.4782 400.1 54.0717C398.172 59.6098 398.707 62.7936 402.068 63.1462C413.373 64.3549 425.209 61.6073 437.846 49.9682C448.753 39.921 453.834 24.7574 450.62 12.2858C448.383 3.63451 443.431 -1.01345 437.604 -4.38853L437.586 -4.37677Z" fill="#0A2A5E"/>
<path d="M333.748 749.891C316.241 726.836 306.436 691.394 309.658 646.226C313.866 587.13 339.352 519.579 373.085 469.381C406.818 419.183 461.692 368.014 497.905 373.603C535.216 379.377 558.822 424.892 561.135 484.994C564.479 571.319 529.579 673.061 475.462 734.55C424.204 792.796 365.953 792.302 333.748 749.891ZM414.119 625.413C433.187 633.733 460.496 610.08 474.439 573.156C487.967 537.349 484.037 501.971 465.608 493.938C446.997 485.789 419.744 509.432 405.882 545.741C392.133 581.757 395.824 617.44 414.119 625.413Z" fill="#FF7464"/>
<path d="M712.173 76.9534C698.315 87.8363 685.496 97.9181 672.677 107.974C646.956 128.15 621.243 148.278 595.523 168.479C587.808 174.537 586.154 178.86 588.112 188.247C598.633 239.08 609.198 289.859 619.746 340.655C620.178 342.774 620.54 344.985 621.28 349.038C612.54 357.997 604.32 367.224 596.068 374.696C581.643 387.761 567.587 396.609 554.229 399.504C549.985 400.424 547.843 398.491 547.65 391.642C546.586 355.385 545.299 319.352 544.092 283.23C543.647 269.732 543.426 256.011 542.622 242.875C542.412 239.397 540.426 237.689 539.247 235.171C536.706 239.307 533.461 243.164 531.737 247.605C521.186 274.91 510.982 302.353 500.629 329.751C499.497 332.753 498.252 335.728 497.017 338.707C489.233 357.595 486.374 360.8 476.859 359.411C459.88 356.909 435.464 344.782 432.652 314.972C431.165 299.172 435.345 295.802 444.225 282.772C455.429 266.313 465.408 250.921 475.833 231.98C499.627 188.738 521.592 142.953 541.159 95.8719C561.008 48.1159 574.651 -1.93144 594.39 -48.8566C596.785 -54.5477 598.676 -57.0445 601.744 -57.1008C613.663 -57.2882 623.221 -52.1212 629.207 -39.0127C630.119 -36.9984 629.843 -31.7052 628.686 -28.0588C619.046 2.06757 608.977 32.1454 599.291 62.2754C598.031 66.1766 598.195 70.2123 597.707 74.1709C600.224 72.3699 602.977 71.5111 605.216 68.5965C623.026 45.3597 640.822 21.9903 658.441 -1.96627C663.912 -9.39954 667.661 -11.7856 671.778 -9.30928C694.492 4.3177 707.507 33.0885 712.173 76.9534Z" fill="#0A2A5E"/>
</g>
<defs>
<clipPath id="clip0_503_2">
<rect width="590" height="625" rx="25" fill="white"/>
</clipPath>
</defs>
</svg>
